<svg xmlns="http://www.w3.org/2000/svg" xmlns:xlink="http://www.w3.org/1999/xlink" viewBox="0 0 746 793" width="746" height="793" preserveAspectRatio="xMidYMid meet" style="width: 100%; height: 100%; transform: translate3d(0px, 0px, 0px); content-visibility: visible;"><defs><clipPath id="__lottie_element_821"><rect width="746" height="793" x="0" y="0"></rect></clipPath><clipPath id="__lottie_element_824"><path d="M0,0 L746,0 L746,793 L0,793z"></path></clipPath><g id="__lottie_element_859"><g transform="matrix(0.9699599742889404,0,0,0.9728900194168091,270.5104675292969,188.06558227539062)" opacity="1" style="display: block;"><g opacity="1" transform="matrix(1,0,0,1,111.63400268554688,119.42500305175781)"><path fill="rgb(0,221,179)" fill-opacity="1" d=" M64.03700256347656,-110.28399658203125 C39.220001220703125,-110.94999694824219 10.423999786376953,-110.53600311279297 0.0010000000474974513,-110.36100006103516 C-10.420999526977539,-110.53600311279297 -39.21900177001953,-110.94999694824219 -64.03500366210938,-110.28399658203125 C-103.16000366210938,-109.23300170898438 -100.95600128173828,-86.24700164794922 -98.98899841308594,-51.46200180053711 C-97.19100189208984,-30.238000869750977 -88.37799835205078,-3.691999912261963 -88.37799835205078,-3.691999912261963 C-66.43599700927734,58.14500045776367 -29.229999542236328,94.43900299072266 -10.876999855041504,107.47000122070312 C-7.611999988555908,109.78800201416016 -3.805000066757202,110.947998046875 0.0010000000474974513,110.9489974975586 C3.806999921798706,110.947998046875 7.611999988555908,109.78800201416016 10.878000259399414,107.47000122070312 C29.23200035095215,94.43900299072266 66.43599700927734,58.14500045776367 88.37799835205078,-3.691999912261963 C88.37799835205078,-3.691999912261963 97.19300079345703,-30.238000869750977 98.98899841308594,-51.46200180053711 C100.95600128173828,-86.24700164794922 103.16000366210938,-109.23300170898438 64.03700256347656,-110.28399658203125z"></path><path stroke-linecap="butt" stroke-linejoin="miter" fill-opacity="0" stroke-miterlimit="10" stroke="rgb(0,0,0)" stroke-opacity="1" stroke-width="3.39" d=" M64.03700256347656,-110.28399658203125 C39.220001220703125,-110.94999694824219 10.423999786376953,-110.53600311279297 0.0010000000474974513,-110.36100006103516 C-10.420999526977539,-110.53600311279297 -39.21900177001953,-110.94999694824219 -64.03500366210938,-110.28399658203125 C-103.16000366210938,-109.23300170898438 -100.95600128173828,-86.24700164794922 -98.98899841308594,-51.46200180053711 C-97.19100189208984,-30.238000869750977 -88.37799835205078,-3.691999912261963 -88.37799835205078,-3.691999912261963 C-66.43599700927734,58.14500045776367 -29.229999542236328,94.43900299072266 -10.876999855041504,107.47000122070312 C-7.611999988555908,109.78800201416016 -3.805000066757202,110.947998046875 0.0010000000474974513,110.9489974975586 C3.806999921798706,110.947998046875 7.611999988555908,109.78800201416016 10.878000259399414,107.47000122070312 C29.23200035095215,94.43900299072266 66.43599700927734,58.14500045776367 88.37799835205078,-3.691999912261963 C88.37799835205078,-3.691999912261963 97.19300079345703,-30.238000869750977 98.98899841308594,-51.46200180053711 C100.95600128173828,-86.24700164794922 103.16000366210938,-109.23300170898438 64.03700256347656,-110.28399658203125z"></path></g></g></g><g id="__lottie_element_862"><g transform="matrix(0.9699599742889404,0,0,0.9728900194168091,270.5104675292969,188.06558227539062)" opacity="1" style="display: block;"><g opacity="1" transform="matrix(1,0,0,1,111.63400268554688,119.42500305175781)"><path fill="rgb(0,221,179)" fill-opacity="1" d=" M64.03700256347656,-110.28399658203125 C39.220001220703125,-110.94999694824219 10.423999786376953,-110.53600311279297 0.0010000000474974513,-110.36100006103516 C-10.420999526977539,-110.53600311279297 -39.21900177001953,-110.94999694824219 -64.03500366210938,-110.28399658203125 C-103.16000366210938,-109.23300170898438 -100.95600128173828,-86.24700164794922 -98.98899841308594,-51.46200180053711 C-97.19100189208984,-30.238000869750977 -88.37799835205078,-3.691999912261963 -88.37799835205078,-3.691999912261963 C-66.43599700927734,58.14500045776367 -29.229999542236328,94.43900299072266 -10.876999855041504,107.47000122070312 C-7.611999988555908,109.78800201416016 -3.805000066757202,110.947998046875 0.0010000000474974513,110.9489974975586 C3.806999921798706,110.947998046875 7.611999988555908,109.78800201416016 10.878000259399414,107.47000122070312 C29.23200035095215,94.43900299072266 66.43599700927734,58.14500045776367 88.37799835205078,-3.691999912261963 C88.37799835205078,-3.691999912261963 97.19300079345703,-30.238000869750977 98.98899841308594,-51.46200180053711 C100.95600128173828,-86.24700164794922 103.16000366210938,-109.23300170898438 64.03700256347656,-110.28399658203125z"></path><path stroke-linecap="butt" stroke-linejoin="miter" fill-opacity="0" stroke-miterlimit="10" stroke="rgb(0,0,0)" stroke-opacity="1" stroke-width="3.39" d=" M64.03700256347656,-110.28399658203125 C39.220001220703125,-110.94999694824219 10.423999786376953,-110.53600311279297 0.0010000000474974513,-110.36100006103516 C-10.420999526977539,-110.53600311279297 -39.21900177001953,-110.94999694824219 -64.03500366210938,-110.28399658203125 C-103.16000366210938,-109.23300170898438 -100.95600128173828,-86.24700164794922 -98.98899841308594,-51.46200180053711 C-97.19100189208984,-30.238000869750977 -88.37799835205078,-3.691999912261963 -88.37799835205078,-3.691999912261963 C-66.43599700927734,58.14500045776367 -29.229999542236328,94.43900299072266 -10.876999855041504,107.47000122070312 C-7.611999988555908,109.78800201416016 -3.805000066757202,110.947998046875 0.0010000000474974513,110.9489974975586 C3.806999921798706,110.947998046875 7.611999988555908,109.78800201416016 10.878000259399414,107.47000122070312 C29.23200035095215,94.43900299072266 66.43599700927734,58.14500045776367 88.37799835205078,-3.691999912261963 C88.37799835205078,-3.691999912261963 97.19300079345703,-30.238000869750977 98.98899841308594,-51.46200180053711 C100.95600128173828,-86.24700164794922 103.16000366210938,-109.23300170898438 64.03700256347656,-110.28399658203125z"></path></g></g></g><mask id="__lottie_element_859_1" mask-type="alpha"><use xlink:href="#__lottie_element_859"></use></mask><clipPath id="__lottie_element_887"><path d="M0,0 L746,0 L746,793 L0,793z"></path></clipPath><clipPath id="__lottie_element_891"><path d="M0,0 L746,0 L746,793 L0,793z"></path></clipPath><clipPath id="__lottie_element_895"><path d="M0,0 L746,0 L746,793 L0,793z"></path></clipPath><mask id="__lottie_element_862_1" mask-type="alpha"><use xlink:href="#__lottie_element_862"></use></mask><clipPath id="__lottie_element_937"><path d="M0,0 L746,0 L746,793 L0,793z"></path></clipPath></defs><g clip-path="url(#__lottie_element_821)"><g clip-path="url(#__lottie_element_887)" transform="matrix(1,0,0,1,0,0)" opacity="1" style="display: block;"><g clip-path="url(#__lottie_element_891)" transform="matrix(1,0,0,1,0,0)" opacity="1" style="display: block;"><g transform="matrix(1,0,0,1,431.85198974609375,511.9430236816406)" opacity="1" style="display: block;"><g opacity="1" transform="matrix(1,0,0,1,110.62699890136719,132.73800659179688)"><path fill="rgb(255,123,249)" fill-opacity="1" d=" M-102.1520004272461,-18.131000518798828 C-102.1520004272461,-18.131000518798828 -34.04999923706055,124.26300048828125 -34.04999923706055,124.26300048828125 C-34.04999923706055,124.26300048828125 0.4429999887943268,27.243000030517578 0.4429999887943268,27.243000030517578 C0.4429999887943268,27.243000030517578 102.1520004272461,62.35300064086914 102.1520004272461,62.35300064086914 C102.1520004272461,62.35300064086914 14.593999862670898,-124.26300048828125 14.593999862670898,-124.26300048828125"></path><path stroke-linecap="butt" stroke-linejoin="miter" fill-opacity="0" stroke-miterlimit="10" stroke="rgb(0,0,0)" stroke-opacity="1" stroke-width="3.39" d=" M-102.1520004272461,-18.131000518798828 C-102.1520004272461,-18.131000518798828 -34.04999923706055,124.26300048828125 -34.04999923706055,124.26300048828125 C-34.04999923706055,124.26300048828125 0.4429999887943268,27.243000030517578 0.4429999887943268,27.243000030517578 C0.4429999887943268,27.243000030517578 102.1520004272461,62.35300064086914 102.1520004272461,62.35300064086914 C102.1520004272461,62.35300064086914 14.593999862670898,-124.26300048828125 14.593999862670898,-124.26300048828125"></path></g></g></g><g clip-path="url(#__lottie_element_895)" transform="matrix(-1,0,0,1,765.75,5)" opacity="1" style="display: block;"><g transform="matrix(1,0,0,1,431.85198974609375,511.9430236816406)" opacity="1" style="display: block;"><g opacity="1" transform="matrix(1,0,0,1,110.62699890136719,132.73800659179688)"><path fill="rgb(255,123,249)" fill-opacity="1" d=" M-102.1520004272461,-18.131000518798828 C-102.1520004272461,-18.131000518798828 -34.04999923706055,124.26300048828125 -34.04999923706055,124.26300048828125 C-34.04999923706055,124.26300048828125 0.4429999887943268,27.243000030517578 0.4429999887943268,27.243000030517578 C0.4429999887943268,27.243000030517578 102.1520004272461,62.35300064086914 102.1520004272461,62.35300064086914 C102.1520004272461,62.35300064086914 14.593999862670898,-124.26300048828125 14.593999862670898,-124.26300048828125"></path><path stroke-linecap="butt" stroke-linejoin="miter" fill-opacity="0" stroke-miterlimit="10" stroke="rgb(0,0,0)" stroke-opacity="1" stroke-width="3.39" d=" M-102.1520004272461,-18.131000518798828 C-102.1520004272461,-18.131000518798828 -34.04999923706055,124.26300048828125 -34.04999923706055,124.26300048828125 C-34.04999923706055,124.26300048828125 0.4429999887943268,27.243000030517578 0.4429999887943268,27.243000030517578 C0.4429999887943268,27.243000030517578 102.1520004272461,62.35300064086914 102.1520004272461,62.35300064086914 C102.1520004272461,62.35300064086914 14.593999862670898,-124.26300048828125 14.593999862670898,-124.26300048828125"></path></g></g></g><g transform="matrix(1,0,0,1,47.430999755859375,19.964996337890625)" opacity="1" style="display: block;"><g opacity="1" transform="matrix(1,0,0,1,334.87799072265625,334.8789978027344)"><path fill="rgb(18,109,255)" fill-opacity="1" d=" M326.40301513671875,0 C326.40301513671875,16.65399932861328 298.14300537109375,30.898000717163086 295.6369934082031,46.84700012207031 C293.0639953613281,63.220001220703125 315.5169982910156,85.46399688720703 310.50799560546875,100.88999938964844 C305.4110107421875,116.58799743652344 274.1289978027344,121.38800048828125 266.72601318359375,135.88800048828125 C259.2460021972656,150.5399932861328 273.68798828125,178.6699981689453 264.0790100097656,191.87399291992188 C254.4239959716797,205.13999938964844 223.19700622558594,200.0489959716797 211.6219940185547,211.625 C200.0469970703125,223.1999969482422 205.13800048828125,254.42599487304688 191.87100219726562,264.08099365234375 C178.66799926757812,273.69000244140625 150.53799438476562,259.24798583984375 135.88600158691406,266.7279968261719 C121.38600158691406,274.1300048828125 116.58599853515625,305.4119873046875 100.88800048828125,310.5090026855469 C85.46199798583984,315.51800537109375 63.21799850463867,293.06500244140625 46.84600067138672,295.63800048828125 C30.89699935913086,298.1440124511719 16.652999877929688,326.40399169921875 -0.0010000000474974513,326.40399169921875 C-16.65399932861328,326.40399169921875 -30.898000717163086,298.1440124511719 -46.847999572753906,295.63800048828125 C-63.22100067138672,293.06500244140625 -85.46499633789062,315.5169982910156 -100.88999938964844,310.5090026855469 C-116.58899688720703,305.4110107421875 -121.38800048828125,274.1300048828125 -135.88900756835938,266.72698974609375 C-150.5399932861328,259.24700927734375 -178.67100524902344,273.6889953613281 -191.875,264.0799865722656 C-205.14100646972656,254.4250030517578 -200.0500030517578,223.197998046875 -211.625,211.6219940185547 C-223.1999969482422,200.0469970703125 -254.427001953125,205.13800048828125 -264.0820007324219,191.8719940185547 C-273.6910095214844,178.66900634765625 -259.24798583984375,150.53799438476562 -266.7279968261719,135.88699340820312 C-274.1310119628906,121.38600158691406 -305.4129943847656,116.58699798583984 -310.510009765625,100.88800048828125 C-315.51800537109375,85.46299743652344 -293.0660095214844,63.21900177001953 -295.63800048828125,46.84600067138672 C-298.1449890136719,30.89699935913086 -326.40399169921875,16.652999877929688 -326.40399169921875,0 C-326.40399169921875,-16.65399932861328 -298.1449890136719,-30.898000717163086 -295.63800048828125,-46.84700012207031 C-293.06500244140625,-63.220001220703125 -315.51800537109375,-85.46399688720703 -310.5090026855469,-100.88999938964844 C-305.4119873046875,-116.58799743652344 -274.1300048828125,-121.38800048828125 -266.7279968261719,-135.88800048828125 C-259.24798583984375,-150.5399932861328 -273.6889953613281,-178.6699981689453 -264.0790100097656,-191.87399291992188 C-254.4239959716797,-205.13999938964844 -223.19900512695312,-200.0489959716797 -211.6230010986328,-211.625 C-200.04800415039062,-223.1999969482422 -205.13900756835938,-254.42599487304688 -191.8730010986328,-264.08099365234375 C-178.66900634765625,-273.69000244140625 -150.53900146484375,-259.24798583984375 -135.88699340820312,-266.7279968261719 C-121.38700103759766,-274.1300048828125 -116.58699798583984,-305.4119873046875 -100.88899993896484,-310.5090026855469 C-85.46399688720703,-315.51800537109375 -63.21900177001953,-293.06500244140625 -46.84700012207031,-295.63800048828125 C-30.898000717163086,-298.1440124511719 -16.65399932861328,-326.40399169921875 -0.0010000000474974513,-326.40399169921875 C16.652999877929688,-326.40399169921875 30.89699935913086,-298.1440124511719 46.84700012207031,-295.63800048828125 C63.21900177001953,-293.06500244140625 85.46399688720703,-315.5169982910156 100.88899993896484,-310.5090026855469 C116.58799743652344,-305.4110107421875 121.38700103759766,-274.1300048828125 135.88699340820312,-266.72698974609375 C150.53900146484375,-259.24700927734375 178.6699981689453,-273.6889953613281 191.8730010986328,-264.0799865722656 C205.13999938964844,-254.4250030517578 200.0489959716797,-223.197998046875 211.62399291992188,-211.6219940185547 C223.19900512695312,-200.0469970703125 254.42599487304688,-205.13800048828125 264.08099365234375,-191.8719940185547 C273.69000244140625,-178.66799926757812 259.24700927734375,-150.53799438476562 266.72698974609375,-135.88699340820312 C274.1300048828125,-121.38600158691406 305.4110107421875,-116.58699798583984 310.5090026855469,-100.88800048828125 C315.5169982910156,-85.46299743652344 293.0639953613281,-63.21900177001953 295.6369934082031,-46.84600067138672 C298.14300537109375,-30.89699935913086 326.40301513671875,-16.652999877929688 326.40301513671875,0z"></path><path stroke-linecap="butt" stroke-linejoin="miter" fill-opacity="0" stroke-miterlimit="10" stroke="rgb(0,0,0)" stroke-opacity="1" stroke-width="3.39" d=" M326.40301513671875,0 C326.40301513671875,16.65399932861328 298.14300537109375,30.898000717163086 295.6369934082031,46.84700012207031 C293.0639953613281,63.220001220703125 315.5169982910156,85.46399688720703 310.50799560546875,100.88999938964844 C305.4110107421875,116.58799743652344 274.1289978027344,121.38800048828125 266.72601318359375,135.88800048828125 C259.2460021972656,150.5399932861328 273.68798828125,178.6699981689453 264.0790100097656,191.87399291992188 C254.4239959716797,205.13999938964844 223.19700622558594,200.0489959716797 211.6219940185547,211.625 C200.0469970703125,223.1999969482422 205.13800048828125,254.42599487304688 191.87100219726562,264.08099365234375 C178.66799926757812,273.69000244140625 150.53799438476562,259.24798583984375 135.88600158691406,266.7279968261719 C121.38600158691406,274.1300048828125 116.58599853515625,305.4119873046875 100.88800048828125,310.5090026855469 C85.46199798583984,315.51800537109375 63.21799850463867,293.06500244140625 46.84600067138672,295.63800048828125 C30.89699935913086,298.1440124511719 16.652999877929688,326.40399169921875 -0.0010000000474974513,326.40399169921875 C-16.65399932861328,326.40399169921875 -30.898000717163086,298.1440124511719 -46.847999572753906,295.63800048828125 C-63.22100067138672,293.06500244140625 -85.46499633789062,315.5169982910156 -100.88999938964844,310.5090026855469 C-116.58899688720703,305.4110107421875 -121.38800048828125,274.1300048828125 -135.88900756835938,266.72698974609375 C-150.5399932861328,259.24700927734375 -178.67100524902344,273.6889953613281 -191.875,264.0799865722656 C-205.14100646972656,254.4250030517578 -200.0500030517578,223.197998046875 -211.625,211.6219940185547 C-223.1999969482422,200.0469970703125 -254.427001953125,205.13800048828125 -264.0820007324219,191.8719940185547 C-273.6910095214844,178.66900634765625 -259.24798583984375,150.53799438476562 -266.7279968261719,135.88699340820312 C-274.1310119628906,121.38600158691406 -305.4129943847656,116.58699798583984 -310.510009765625,100.88800048828125 C-315.51800537109375,85.46299743652344 -293.0660095214844,63.21900177001953 -295.63800048828125,46.84600067138672 C-298.1449890136719,30.89699935913086 -326.40399169921875,16.652999877929688 -326.40399169921875,0 C-326.40399169921875,-16.65399932861328 -298.1449890136719,-30.898000717163086 -295.63800048828125,-46.84700012207031 C-293.06500244140625,-63.220001220703125 -315.51800537109375,-85.46399688720703 -310.5090026855469,-100.88999938964844 C-305.4119873046875,-116.58799743652344 -274.1300048828125,-121.38800048828125 -266.7279968261719,-135.88800048828125 C-259.24798583984375,-150.5399932861328 -273.6889953613281,-178.6699981689453 -264.0790100097656,-191.87399291992188 C-254.4239959716797,-205.13999938964844 -223.19900512695312,-200.0489959716797 -211.6230010986328,-211.625 C-200.04800415039062,-223.1999969482422 -205.13900756835938,-254.42599487304688 -191.8730010986328,-264.08099365234375 C-178.66900634765625,-273.69000244140625 -150.53900146484375,-259.24798583984375 -135.88699340820312,-266.7279968261719 C-121.38700103759766,-274.1300048828125 -116.58699798583984,-305.4119873046875 -100.88899993896484,-310.5090026855469 C-85.46399688720703,-315.51800537109375 -63.21900177001953,-293.06500244140625 -46.84700012207031,-295.63800048828125 C-30.898000717163086,-298.1440124511719 -16.65399932861328,-326.40399169921875 -0.0010000000474974513,-326.40399169921875 C16.652999877929688,-326.40399169921875 30.89699935913086,-298.1440124511719 46.84700012207031,-295.63800048828125 C63.21900177001953,-293.06500244140625 85.46399688720703,-315.5169982910156 100.88899993896484,-310.5090026855469 C116.58799743652344,-305.4110107421875 121.38700103759766,-274.1300048828125 135.88699340820312,-266.72698974609375 C150.53900146484375,-259.24700927734375 178.6699981689453,-273.6889953613281 191.8730010986328,-264.0799865722656 C205.13999938964844,-254.4250030517578 200.0489959716797,-223.197998046875 211.62399291992188,-211.6219940185547 C223.19900512695312,-200.0469970703125 254.42599487304688,-205.13800048828125 264.08099365234375,-191.8719940185547 C273.69000244140625,-178.66799926757812 259.24700927734375,-150.53799438476562 266.72698974609375,-135.88699340820312 C274.1300048828125,-121.38600158691406 305.4110107421875,-116.58699798583984 310.5090026855469,-100.88800048828125 C315.5169982910156,-85.46299743652344 293.0639953613281,-63.21900177001953 295.6369934082031,-46.84600067138672 C298.14300537109375,-30.89699935913086 326.40301513671875,-16.652999877929688 326.40301513671875,0z"></path></g></g><g transform="matrix(1,0,0,1,97.0059814453125,69.54000854492188)" opacity="1" style="display: block;"><g opacity="1" transform="matrix(1,0,0,1,285.3030090332031,285.3039855957031)"><path fill="rgb(0,221,179)" fill-opacity="1" d=" M276.8280029296875,0 C276.8280029296875,152.88800048828125 152.88900756835938,276.8290100097656 0,276.8290100097656 C-152.88800048828125,276.8290100097656 -276.8280029296875,152.88800048828125 -276.8280029296875,0 C-276.8280029296875,-152.88800048828125 -152.88800048828125,-276.8290100097656 0,-276.8290100097656 C152.88900756835938,-276.8290100097656 276.8280029296875,-152.88800048828125 276.8280029296875,0z"></path><path stroke-linecap="butt" stroke-linejoin="miter" fill-opacity="0" stroke-miterlimit="10" stroke="rgb(0,0,0)" stroke-opacity="1" stroke-width="3.39" d=" M276.8280029296875,0 C276.8280029296875,152.88800048828125 152.88900756835938,276.8290100097656 0,276.8290100097656 C-152.88800048828125,276.8290100097656 -276.8280029296875,152.88800048828125 -276.8280029296875,0 C-276.8280029296875,-152.88800048828125 -152.88800048828125,-276.8290100097656 0,-276.8290100097656 C152.88900756835938,-276.8290100097656 276.8280029296875,-152.88800048828125 276.8280029296875,0z"></path></g></g><g transform="matrix(1,0,0,1,123.53900146484375,96.07400512695312)" opacity="1" style="display: block;"><g opacity="1" transform="matrix(1,0,0,1,258.7699890136719,258.7699890136719)"><path fill="rgb(255,247,215)" fill-opacity="1" d=" M250.29600524902344,0 C250.29600524902344,138.23399353027344 138.23500061035156,250.2949981689453 0.0010000000474974513,250.2949981689453 C-138.23399353027344,250.2949981689453 -250.29600524902344,138.23399353027344 -250.29600524902344,0 C-250.29600524902344,-138.23399353027344 -138.23399353027344,-250.2949981689453 0.0010000000474974513,-250.2949981689453 C138.23500061035156,-250.2949981689453 250.29600524902344,-138.23399353027344 250.29600524902344,0z"></path><path stroke-linecap="butt" stroke-linejoin="miter" fill-opacity="0" stroke-miterlimit="10" stroke="rgb(0,0,0)" stroke-opacity="1" stroke-width="3.39" d=" M250.29600524902344,0 C250.29600524902344,138.23399353027344 138.23500061035156,250.2949981689453 0.0010000000474974513,250.2949981689453 C-138.23399353027344,250.2949981689453 -250.29600524902344,138.23399353027344 -250.29600524902344,0 C-250.29600524902344,-138.23399353027344 -138.23399353027344,-250.2949981689453 0.0010000000474974513,-250.2949981689453 C138.23500061035156,-250.2949981689453 250.29600524902344,-138.23399353027344 250.29600524902344,0z"></path></g></g></g><g transform="matrix(0.7632560729980469,-0.014295459724962711,0.0247527826577425,1.3215882778167725,374.2291259765625,458.16876220703125)" opacity="1" style="display: block;"><g opacity="1" transform="matrix(1,0,0,1,4,33)"><path fill="rgb(0,0,0)" fill-opacity="1" d=" M0,-12.5 C43.04819869995117,-12.5 78,-6.898749828338623 78,0 C78,6.898749828338623 43.04819869995117,12.5 0,12.5 C-43.04819869995117,12.5 -78,6.898749828338623 -78,0 C-78,-6.898749828338623 -43.04819869995117,-12.5 0,-12.5z"></path><path stroke-linecap="butt" stroke-linejoin="miter" fill-opacity="0" stroke-miterlimit="4" stroke="rgb(0,0,0)" stroke-opacity="1" stroke-width="0" d=" M0,-12.5 C43.04819869995117,-12.5 78,-6.898749828338623 78,0 C78,6.898749828338623 43.04819869995117,12.5 0,12.5 C-43.04819869995117,12.5 -78,6.898749828338623 -78,0 C-78,-6.898749828338623 -43.04819869995117,-12.5 0,-12.5z"></path></g></g><g clip-path="url(#__lottie_element_824)" transform="matrix(1,0,0,1,0,0)" opacity="1" style="display: block;"><g transform="matrix(1,0,0,1,363.927001953125,160.17701721191406)" opacity="1" style="display: none;"><g opacity="1" transform="matrix(1,0,0,1,106.43599700927734,131.40199279785156)"><path stroke-linecap="butt" stroke-linejoin="miter" fill-opacity="0" stroke-miterlimit="10" stroke="rgb(0,0,0)" stroke-opacity="1" stroke-width="30" d=" M-179.1446075439453,-72.23401641845703 C-179.1446075439453,-72.23401641845703 -206.1634979248047,-66.36001586914062 -206.1634979248047,-66.36001586914062 C-215.221435546875,-64.3910140991211 -223.15988159179688,-58.459014892578125 -226.8002471923828,-49.930015563964844 C-229.03724670410156,-44.68801498413086 -230.0447998046875,-37.94401550292969 -228.03469848632812,-29.505014419555664 C-222.03738403320312,-4.326014995574951 -216.13003540039062,30.672985076904297 -211.97889709472656,48.81198501586914 C-209.20513916015625,60.92798614501953 -199.20462036132812,70.29098510742188 -186.84616088867188,71.5579833984375 C-183.40069580078125,71.9109878540039 -135.87400817871094,68.99998474121094 -135.87400817871094,68.99998474121094"></path></g></g><g transform="matrix(1,0,0,1,363.927001953125,160.17701721191406)" opacity="1" style="display: block;"><g opacity="1" transform="matrix(1,0,0,1,106.43599700927734,131.40199279785156)"><path stroke-linecap="butt" stroke-linejoin="miter" fill-opacity="0" stroke-miterlimit="10" stroke="rgb(0,0,0)" stroke-opacity="1" stroke-width="30" d=" M-3.315999984741211,-72.302001953125 C-3.315999984741211,-72.302001953125 23.714000701904297,-66.4280014038086 23.714000701904297,-66.4280014038086 C32.7760009765625,-64.45899963378906 40.71799850463867,-58.527000427246094 44.36000061035156,-49.99800109863281 C46.597999572753906,-44.75600051879883 47.606998443603516,-38.012001037597656 45.59600067138672,-29.572999954223633 C39.59600067138672,-4.394000053405762 33.68600082397461,30.604999542236328 29.533000946044922,48.74399948120117 C26.757999420166016,60.86000061035156 16.753000259399414,70.2229995727539 4.388999938964844,71.48999786376953 C0.9419999718666077,71.84300231933594 -46.60599899291992,68.93199920654297 -46.60599899291992,68.93199920654297"></path></g></g><g transform="matrix(1,0,0,1,363.927001953125,160.17701721191406)" opacity="1" style="display: none;"><g opacity="1" transform="matrix(1,0,0,1,106.43599700927734,131.40199279785156)"><path stroke-linecap="butt" stroke-linejoin="miter" fill-opacity="0" stroke-miterlimit="10" stroke="rgb(1,150,138)" stroke-opacity="1" stroke-width="23.732" d=" M-179.1446075439453,-72.23401641845703 C-179.1446075439453,-72.23401641845703 -206.1634979248047,-66.36001586914062 -206.1634979248047,-66.36001586914062 C-215.221435546875,-64.3910140991211 -223.15988159179688,-58.459014892578125 -226.8002471923828,-49.930015563964844 C-229.03724670410156,-44.68801498413086 -230.0447998046875,-37.94401550292969 -228.03469848632812,-29.505014419555664 C-222.03738403320312,-4.326014995574951 -216.13003540039062,30.672985076904297 -211.97889709472656,48.81198501586914 C-209.20513916015625,60.92798614501953 -199.20462036132812,70.29098510742188 -186.84616088867188,71.5579833984375 C-183.40069580078125,71.9109878540039 -135.87400817871094,68.99998474121094 -135.87400817871094,68.99998474121094"></path></g></g><g transform="matrix(1,0,0,1,363.927001953125,160.17701721191406)" opacity="1" style="display: block;"><g opacity="1" transform="matrix(1,0,0,1,106.43599700927734,131.40199279785156)"><path stroke-linecap="butt" stroke-linejoin="miter" fill-opacity="0" stroke-miterlimit="10" stroke="rgb(1,150,138)" stroke-opacity="1" stroke-width="23.732" d=" M-3.315999984741211,-72.302001953125 C-3.315999984741211,-72.302001953125 23.714000701904297,-66.4280014038086 23.714000701904297,-66.4280014038086 C32.7760009765625,-64.45899963378906 40.71799850463867,-58.527000427246094 44.36000061035156,-49.99800109863281 C46.597999572753906,-44.75600051879883 47.606998443603516,-38.012001037597656 45.59600067138672,-29.572999954223633 C39.59600067138672,-4.394000053405762 33.68600082397461,30.604999542236328 29.533000946044922,48.74399948120117 C26.757999420166016,60.86000061035156 16.753000259399414,70.2229995727539 4.388999938964844,71.48999786376953 C0.9419999718666077,71.84300231933594 -46.60599899291992,68.93199920654297 -46.60599899291992,68.93199920654297"></path></g></g><g transform="matrix(1,0,0,1,180.21099853515625,160.17701721191406)" opacity="1" style="display: block;"><g opacity="1" transform="matrix(1,0,0,1,106.43599700927734,131.40199279785156)"><path stroke-linecap="butt" stroke-linejoin="miter" fill-opacity="0" stroke-miterlimit="10" stroke="rgb(0,0,0)" stroke-opacity="1" stroke-width="30" d=" M4.816999912261963,-72.29199981689453 C4.816999912261963,-72.29199981689453 -22.214000701904297,-66.41799926757812 -22.214000701904297,-66.41799926757812 C-31.275999069213867,-64.4489974975586 -39.21799850463867,-58.516998291015625 -42.86000061035156,-49.987998962402344 C-45.097999572753906,-44.74599838256836 -46.10599899291992,-38.00199890136719 -44.095001220703125,-29.562999725341797 C-38.095001220703125,-4.383999824523926 -32.185001373291016,30.614999771118164 -28.031999588012695,48.75400161743164 C-25.256999969482422,60.869998931884766 -15.251999855041504,70.23300170898438 -2.888000011444092,71.5 C0.5590000152587891,71.85299682617188 48.106998443603516,68.94200134277344 48.106998443603516,68.94200134277344"></path></g></g><g transform="matrix(1,0,0,1,180.21099853515625,160.17701721191406)" opacity="1" style="display: block;"><g opacity="1" transform="matrix(1,0,0,1,106.43599700927734,131.40199279785156)"><path stroke-linecap="butt" stroke-linejoin="miter" fill-opacity="0" stroke-miterlimit="10" stroke="rgb(1,150,138)" stroke-opacity="1" stroke-width="23.732" d=" M4.816999912261963,-72.29199981689453 C4.816999912261963,-72.29199981689453 -22.214000701904297,-66.41799926757812 -22.214000701904297,-66.41799926757812 C-31.275999069213867,-64.4489974975586 -39.21799850463867,-58.516998291015625 -42.86000061035156,-49.987998962402344 C-45.097999572753906,-44.74599838256836 -46.10599899291992,-38.00199890136719 -44.095001220703125,-29.562999725341797 C-38.095001220703125,-4.383999824523926 -32.185001373291016,30.614999771118164 -28.031999588012695,48.75400161743164 C-25.256999969482422,60.869998931884766 -15.251999855041504,70.23300170898438 -2.888000011444092,71.5 C0.5590000152587891,71.85299682617188 48.106998443603516,68.94200134277344 48.106998443603516,68.94200134277344"></path></g></g><g transform="matrix(1,0,0,1,317.1949768066406,382.77899169921875)" opacity="1" style="display: block;"><g opacity="1" transform="matrix(1,0,0,1,61.59600067138672,55.099998474121094)"><path fill="rgb(0,221,179)" fill-opacity="1" d=" M0,-35.720001220703125 C0,-35.720001220703125 -24.740999221801758,-45.729000091552734 -25.045000076293945,-39.58100128173828 C-27.75200080871582,15.15999984741211 -53.12099838256836,44.409000396728516 -53.12099838256836,44.409000396728516 C-53.12099838256836,44.409000396728516 0,46.625 0,46.625 C0,46.625 53.12099838256836,44.409000396728516 53.12099838256836,44.409000396728516 C53.12099838256836,44.409000396728516 27.35700035095215,14.704000473022461 24.985000610351562,-40.861000061035156 C24.73900032043457,-46.625 0,-35.720001220703125 0,-35.720001220703125z"></path><path stroke-linecap="butt" stroke-linejoin="miter" fill-opacity="0" stroke-miterlimit="10" stroke="rgb(0,0,0)" stroke-opacity="1" stroke-width="3.39" d=" M0,-35.720001220703125 C0,-35.720001220703125 -24.740999221801758,-45.729000091552734 -25.045000076293945,-39.58100128173828 C-27.75200080871582,15.15999984741211 -53.12099838256836,44.409000396728516 -53.12099838256836,44.409000396728516 C-53.12099838256836,44.409000396728516 0,46.625 0,46.625 C0,46.625 53.12099838256836,44.409000396728516 53.12099838256836,44.409000396728516 C53.12099838256836,44.409000396728516 27.35700035095215,14.704000473022461 24.985000610351562,-40.861000061035156 C24.73900032043457,-46.625 0,-35.720001220703125 0,-35.720001220703125z"></path></g></g><g transform="matrix(1,0,0,1,287.56597900390625,455.7350158691406)" opacity="1" style="display: block;"><g opacity="1" transform="matrix(1,0,0,1,91.2249984741211,24.395000457763672)"><path fill="rgb(1,157,145)" fill-opacity="1" d=" M71.30799865722656,-15.920000076293945 C71.30799865722656,-15.920000076293945 0,-15.920000076293945 0,-15.920000076293945 C0,-15.920000076293945 -71.30799865722656,-15.920000076293945 -71.30799865722656,-15.920000076293945 C-77.62699890136719,-15.920000076293945 -82.75,-10.79699993133545 -82.75,-4.478000164031982 C-82.75,-4.478000164031982 -82.75,15.920000076293945 -82.75,15.920000076293945 C-82.75,15.920000076293945 0,15.920000076293945 0,15.920000076293945 C0,15.920000076293945 82.75,15.920000076293945 82.75,15.920000076293945 C82.75,15.920000076293945 82.75,-4.478000164031982 82.75,-4.478000164031982 C82.75,-10.79699993133545 77.62699890136719,-15.920000076293945 71.30799865722656,-15.920000076293945z"></path><path stroke-linecap="butt" stroke-linejoin="miter" fill-opacity="0" stroke-miterlimit="10" stroke="rgb(0,0,0)" stroke-opacity="1" stroke-width="3.39" d=" M71.30799865722656,-15.920000076293945 C71.30799865722656,-15.920000076293945 0,-15.920000076293945 0,-15.920000076293945 C0,-15.920000076293945 -71.30799865722656,-15.920000076293945 -71.30799865722656,-15.920000076293945 C-77.62699890136719,-15.920000076293945 -82.75,-10.79699993133545 -82.75,-4.478000164031982 C-82.75,-4.478000164031982 -82.75,15.920000076293945 -82.75,15.920000076293945 C-82.75,15.920000076293945 0,15.920000076293945 0,15.920000076293945 C0,15.920000076293945 82.75,15.920000076293945 82.75,15.920000076293945 C82.75,15.920000076293945 82.75,-4.478000164031982 82.75,-4.478000164031982 C82.75,-10.79699993133545 77.62699890136719,-15.920000076293945 71.30799865722656,-15.920000076293945z"></path></g></g><g transform="matrix(1,0,0,1,271.1949768066406,485.9159851074219)" opacity="1" style="display: block;"><g opacity="1" transform="matrix(1,0,0,1,107.59600067138672,21.488000869750977)"><path fill="rgb(1,157,145)" fill-opacity="1" d=" M85.19100189208984,-13.012999534606934 C85.19100189208984,-13.012999534606934 0,-13.012999534606934 0,-13.012999534606934 C0,-13.012999534606934 -85.19100189208984,-13.012999534606934 -85.19100189208984,-13.012999534606934 C-92.88500213623047,-13.012999534606934 -99.12100219726562,-7.186999797821045 -99.12100219726562,0 C-99.12100219726562,7.186999797821045 -92.88500213623047,13.012999534606934 -85.19100189208984,13.012999534606934 C-85.19100189208984,13.012999534606934 0,13.012999534606934 0,13.012999534606934 C0,13.012999534606934 85.19100189208984,13.012999534606934 85.19100189208984,13.012999534606934 C92.88500213623047,13.012999534606934 99.12100219726562,7.186999797821045 99.12100219726562,0 C99.12100219726562,-7.186999797821045 92.88500213623047,-13.012999534606934 85.19100189208984,-13.012999534606934z"></path><path stroke-linecap="butt" stroke-linejoin="miter" fill-opacity="0" stroke-miterlimit="10" stroke="rgb(0,0,0)" stroke-opacity="1" stroke-width="3.39" d=" M85.19100189208984,-13.012999534606934 C85.19100189208984,-13.012999534606934 0,-13.012999534606934 0,-13.012999534606934 C0,-13.012999534606934 -85.19100189208984,-13.012999534606934 -85.19100189208984,-13.012999534606934 C-92.88500213623047,-13.012999534606934 -99.12100219726562,-7.186999797821045 -99.12100219726562,0 C-99.12100219726562,7.186999797821045 -92.88500213623047,13.012999534606934 -85.19100189208984,13.012999534606934 C-85.19100189208984,13.012999534606934 0,13.012999534606934 0,13.012999534606934 C0,13.012999534606934 85.19100189208984,13.012999534606934 85.19100189208984,13.012999534606934 C92.88500213623047,13.012999534606934 99.12100219726562,7.186999797821045 99.12100219726562,0 C99.12100219726562,-7.186999797821045 92.88500213623047,-13.012999534606934 85.19100189208984,-13.012999534606934z"></path></g></g><g transform="matrix(0.009999999776482582,0,0,0.6523148417472839,470.98406982421875,493.3870544433594)" opacity="0.35000000000000003" style="display: none;"><g opacity="1" transform="matrix(1,0,0,1,107.59600067138672,21.488000869750977)"><path fill="rgb(255,255,255)" fill-opacity="1" d=" M85.19100189208984,-13.012999534606934 C85.19100189208984,-13.012999534606934 0,-13.012999534606934 0,-13.012999534606934 C0,-13.012999534606934 -85.19100189208984,-13.012999534606934 -85.19100189208984,-13.012999534606934 C-92.88500213623047,-13.012999534606934 -99.12100219726562,-7.186999797821045 -99.12100219726562,0 C-99.12100219726562,7.186999797821045 -92.88500213623047,13.012999534606934 -85.19100189208984,13.012999534606934 C-85.19100189208984,13.012999534606934 0,13.012999534606934 0,13.012999534606934 C0,13.012999534606934 85.19100189208984,13.012999534606934 85.19100189208984,13.012999534606934 C92.88500213623047,13.012999534606934 99.12100219726562,7.186999797821045 99.12100219726562,0 C99.12100219726562,-7.186999797821045 92.88500213623047,-13.012999534606934 85.19100189208984,-13.012999534606934z"></path><path stroke-linecap="butt" stroke-linejoin="miter" fill-opacity="0" stroke-miterlimit="10" stroke="rgb(0,0,0)" stroke-opacity="1" stroke-width="0" d=" M85.19100189208984,-13.012999534606934 C85.19100189208984,-13.012999534606934 0,-13.012999534606934 0,-13.012999534606934 C0,-13.012999534606934 -85.19100189208984,-13.012999534606934 -85.19100189208984,-13.012999534606934 C-92.88500213623047,-13.012999534606934 -99.12100219726562,-7.186999797821045 -99.12100219726562,0 C-99.12100219726562,7.186999797821045 -92.88500213623047,13.012999534606934 -85.19100189208984,13.012999534606934 C-85.19100189208984,13.012999534606934 0,13.012999534606934 0,13.012999534606934 C0,13.012999534606934 85.19100189208984,13.012999534606934 85.19100189208984,13.012999534606934 C92.88500213623047,13.012999534606934 99.12100219726562,7.186999797821045 99.12100219726562,0 C99.12100219726562,-7.186999797821045 92.88500213623047,-13.012999534606934 85.19100189208984,-13.012999534606934z"></path></g></g><g transform="matrix(0.050816234201192856,0,0,0.9052671790122986,443.6554870605469,459.95159912109375)" opacity="0.35000000000000003" style="display: none;"><g opacity="1" transform="matrix(1,0,0,1,107.59600067138672,21.488000869750977)"><path fill="rgb(255,255,255)" fill-opacity="1" d=" M85.19100189208984,-13.012999534606934 C85.19100189208984,-13.012999534606934 0,-13.012999534606934 0,-13.012999534606934 C0,-13.012999534606934 -85.19100189208984,-13.012999534606934 -85.19100189208984,-13.012999534606934 C-92.88500213623047,-13.012999534606934 -99.12100219726562,-7.186999797821045 -99.12100219726562,0 C-99.12100219726562,7.186999797821045 -92.88500213623047,13.012999534606934 -85.19100189208984,13.012999534606934 C-85.19100189208984,13.012999534606934 0,13.012999534606934 0,13.012999534606934 C0,13.012999534606934 85.19100189208984,13.012999534606934 85.19100189208984,13.012999534606934 C92.88500213623047,13.012999534606934 99.12100219726562,7.186999797821045 99.12100219726562,0 C99.12100219726562,-7.186999797821045 92.88500213623047,-13.012999534606934 85.19100189208984,-13.012999534606934z"></path><path stroke-linecap="butt" stroke-linejoin="miter" fill-opacity="0" stroke-miterlimit="10" stroke="rgb(0,0,0)" stroke-opacity="1" stroke-width="0" d=" M85.19100189208984,-13.012999534606934 C85.19100189208984,-13.012999534606934 0,-13.012999534606934 0,-13.012999534606934 C0,-13.012999534606934 -85.19100189208984,-13.012999534606934 -85.19100189208984,-13.012999534606934 C-92.88500213623047,-13.012999534606934 -99.12100219726562,-7.186999797821045 -99.12100219726562,0 C-99.12100219726562,7.186999797821045 -92.88500213623047,13.012999534606934 -85.19100189208984,13.012999534606934 C-85.19100189208984,13.012999534606934 0,13.012999534606934 0,13.012999534606934 C0,13.012999534606934 85.19100189208984,13.012999534606934 85.19100189208984,13.012999534606934 C92.88500213623047,13.012999534606934 99.12100219726562,7.186999797821045 99.12100219726562,0 C99.12100219726562,-7.186999797821045 92.88500213623047,-13.012999534606934 85.19100189208984,-13.012999534606934z"></path></g></g><g transform="matrix(0.21939101815223694,0,0,1.0096230506896973,354.9375915527344,457.7091979980469)" opacity="0.0009226953964624585" style="display: none;"><g opacity="1" transform="matrix(1,0,0,1,107.59600067138672,21.488000869750977)"><path fill="rgb(255,255,255)" fill-opacity="1" d=" M85.19100189208984,-13.012999534606934 C85.19100189208984,-13.012999534606934 0,-13.012999534606934 0,-13.012999534606934 C0,-13.012999534606934 -85.19100189208984,-13.012999534606934 -85.19100189208984,-13.012999534606934 C-92.88500213623047,-13.012999534606934 -99.12100219726562,-7.186999797821045 -99.12100219726562,0 C-99.12100219726562,7.186999797821045 -92.88500213623047,13.012999534606934 -85.19100189208984,13.012999534606934 C-85.19100189208984,13.012999534606934 0,13.012999534606934 0,13.012999534606934 C0,13.012999534606934 85.19100189208984,13.012999534606934 85.19100189208984,13.012999534606934 C92.88500213623047,13.012999534606934 99.12100219726562,7.186999797821045 99.12100219726562,0 C99.12100219726562,-7.186999797821045 92.88500213623047,-13.012999534606934 85.19100189208984,-13.012999534606934z"></path><path stroke-linecap="butt" stroke-linejoin="miter" fill-opacity="0" stroke-miterlimit="10" stroke="rgb(0,0,0)" stroke-opacity="1" stroke-width="0" d=" M85.19100189208984,-13.012999534606934 C85.19100189208984,-13.012999534606934 0,-13.012999534606934 0,-13.012999534606934 C0,-13.012999534606934 -85.19100189208984,-13.012999534606934 -85.19100189208984,-13.012999534606934 C-92.88500213623047,-13.012999534606934 -99.12100219726562,-7.186999797821045 -99.12100219726562,0 C-99.12100219726562,7.186999797821045 -92.88500213623047,13.012999534606934 -85.19100189208984,13.012999534606934 C-85.19100189208984,13.012999534606934 0,13.012999534606934 0,13.012999534606934 C0,13.012999534606934 85.19100189208984,13.012999534606934 85.19100189208984,13.012999534606934 C92.88500213623047,13.012999534606934 99.12100219726562,7.186999797821045 99.12100219726562,0 C99.12100219726562,-7.186999797821045 92.88500213623047,-13.012999534606934 85.19100189208984,-13.012999534606934z"></path></g></g><g transform="matrix(0.41881102323532104,0,0,0.8799999952316284,333.4808044433594,488.4945373535156)" opacity="0.0009226953964624585" style="display: none;"><g opacity="1" transform="matrix(1,0,0,1,107.59600067138672,21.488000869750977)"><path fill="rgb(255,255,255)" fill-opacity="1" d=" M85.19100189208984,-13.012999534606934 C85.19100189208984,-13.012999534606934 0,-13.012999534606934 0,-13.012999534606934 C0,-13.012999534606934 -85.19100189208984,-13.012999534606934 -85.19100189208984,-13.012999534606934 C-92.88500213623047,-13.012999534606934 -99.12100219726562,-7.186999797821045 -99.12100219726562,0 C-99.12100219726562,7.186999797821045 -92.88500213623047,13.012999534606934 -85.19100189208984,13.012999534606934 C-85.19100189208984,13.012999534606934 0,13.012999534606934 0,13.012999534606934 C0,13.012999534606934 85.19100189208984,13.012999534606934 85.19100189208984,13.012999534606934 C92.88500213623047,13.012999534606934 99.12100219726562,7.186999797821045 99.12100219726562,0 C99.12100219726562,-7.186999797821045 92.88500213623047,-13.012999534606934 85.19100189208984,-13.012999534606934z"></path><path stroke-linecap="butt" stroke-linejoin="miter" fill-opacity="0" stroke-miterlimit="10" stroke="rgb(0,0,0)" stroke-opacity="1" stroke-width="0" d=" M85.19100189208984,-13.012999534606934 C85.19100189208984,-13.012999534606934 0,-13.012999534606934 0,-13.012999534606934 C0,-13.012999534606934 -85.19100189208984,-13.012999534606934 -85.19100189208984,-13.012999534606934 C-92.88500213623047,-13.012999534606934 -99.12100219726562,-7.186999797821045 -99.12100219726562,0 C-99.12100219726562,7.186999797821045 -92.88500213623047,13.012999534606934 -85.19100189208984,13.012999534606934 C-85.19100189208984,13.012999534606934 0,13.012999534606934 0,13.012999534606934 C0,13.012999534606934 85.19100189208984,13.012999534606934 85.19100189208984,13.012999534606934 C92.88500213623047,13.012999534606934 99.12100219726562,7.186999797821045 99.12100219726562,0 C99.12100219726562,-7.186999797821045 92.88500213623047,-13.012999534606934 85.19100189208984,-13.012999534606934z"></path></g></g><g transform="matrix(1,0,0,1,267.156982421875,184.8280029296875)" opacity="1" style="display: block;"><g opacity="1" transform="matrix(1,0,0,1,111.63400268554688,119.42500305175781)"><path fill="rgb(0,221,179)" fill-opacity="1" d=" M64.03700256347656,-110.28399658203125 C39.220001220703125,-110.94999694824219 10.423999786376953,-110.53600311279297 0.0010000000474974513,-110.36100006103516 C-10.420999526977539,-110.53600311279297 -39.21900177001953,-110.94999694824219 -64.03500366210938,-110.28399658203125 C-103.16000366210938,-109.23300170898438 -100.95600128173828,-86.24700164794922 -98.98899841308594,-51.46200180053711 C-97.19100189208984,-30.238000869750977 -88.37799835205078,-3.691999912261963 -88.37799835205078,-3.691999912261963 C-66.43599700927734,58.14500045776367 -29.229999542236328,94.43900299072266 -10.876999855041504,107.47000122070312 C-7.611999988555908,109.78800201416016 -3.805000066757202,110.947998046875 0.0010000000474974513,110.9489974975586 C3.806999921798706,110.947998046875 7.611999988555908,109.78800201416016 10.878000259399414,107.47000122070312 C29.23200035095215,94.43900299072266 66.43599700927734,58.14500045776367 88.37799835205078,-3.691999912261963 C88.37799835205078,-3.691999912261963 97.19300079345703,-30.238000869750977 98.98899841308594,-51.46200180053711 C100.95600128173828,-86.24700164794922 103.16000366210938,-109.23300170898438 64.03700256347656,-110.28399658203125z"></path><path stroke-linecap="butt" stroke-linejoin="miter" fill-opacity="0" stroke-miterlimit="10" stroke="rgb(0,0,0)" stroke-opacity="1" stroke-width="3.39" d=" M64.03700256347656,-110.28399658203125 C39.220001220703125,-110.94999694824219 10.423999786376953,-110.53600311279297 0.0010000000474974513,-110.36100006103516 C-10.420999526977539,-110.53600311279297 -39.21900177001953,-110.94999694824219 -64.03500366210938,-110.28399658203125 C-103.16000366210938,-109.23300170898438 -100.95600128173828,-86.24700164794922 -98.98899841308594,-51.46200180053711 C-97.19100189208984,-30.238000869750977 -88.37799835205078,-3.691999912261963 -88.37799835205078,-3.691999912261963 C-66.43599700927734,58.14500045776367 -29.229999542236328,94.43900299072266 -10.876999855041504,107.47000122070312 C-7.611999988555908,109.78800201416016 -3.805000066757202,110.947998046875 0.0010000000474974513,110.9489974975586 C3.806999921798706,110.947998046875 7.611999988555908,109.78800201416016 10.878000259399414,107.47000122070312 C29.23200035095215,94.43900299072266 66.43599700927734,58.14500045776367 88.37799835205078,-3.691999912261963 C88.37799835205078,-3.691999912261963 97.19300079345703,-30.238000869750977 98.98899841308594,-51.46200180053711 C100.95600128173828,-86.24700164794922 103.16000366210938,-109.23300170898438 64.03700256347656,-110.28399658203125z"></path></g></g><g transform="matrix(1,0,0,1,180.21099853515625,160.17701721191406)" opacity="1" style="display: none;"><g opacity="1" transform="matrix(1,0,0,1,0,0)"></g><g opacity="1" transform="matrix(1,0,0,1,106.43599700927734,131.40199279785156)"><path stroke-linecap="butt" stroke-linejoin="miter" fill-opacity="0" stroke-miterlimit="10" stroke="rgb(0,0,0)" stroke-opacity="1" stroke-width="30" d=" M178.17977905273438,-72.23851776123047 C178.17977905273438,-72.23851776123047 205.0548858642578,-66.36451721191406 205.0548858642578,-66.36451721191406 C214.06463623046875,-64.39551544189453 221.96083068847656,-58.46352005004883 225.5818328857422,-49.93451690673828 C227.80691528320312,-44.69252014160156 228.80911254882812,-37.94852066040039 226.80970764160156,-29.509521484375 C220.84429931640625,-4.330521106719971 214.9683837890625,30.668481826782227 210.83934020996094,48.80747985839844 C208.08033752441406,60.92348098754883 198.13304138183594,70.28648376464844 185.84034729003906,71.55348205566406 C182.41322326660156,71.90647888183594 135.13941955566406,68.99547576904297 135.13941955566406,68.99547576904297"></path></g></g><g transform="matrix(1,0,0,1,180.21099853515625,160.17701721191406)" opacity="1" style="display: none;"><g opacity="1" transform="matrix(1,0,0,1,0,0)"></g><g opacity="1" transform="matrix(1,0,0,1,106.43599700927734,131.40199279785156)"><path stroke-linecap="butt" stroke-linejoin="miter" fill-opacity="0" stroke-miterlimit="10" stroke="rgb(1,150,138)" stroke-opacity="1" stroke-width="23.732" d=" M178.17977905273438,-72.23851776123047 C178.17977905273438,-72.23851776123047 205.0548858642578,-66.36451721191406 205.0548858642578,-66.36451721191406 C214.06463623046875,-64.39551544189453 221.96083068847656,-58.46352005004883 225.5818328857422,-49.93451690673828 C227.80691528320312,-44.69252014160156 228.80911254882812,-37.94852066040039 226.80970764160156,-29.509521484375 C220.84429931640625,-4.330521106719971 214.9683837890625,30.668481826782227 210.83934020996094,48.80747985839844 C208.08033752441406,60.92348098754883 198.13304138183594,70.28648376464844 185.84034729003906,71.55348205566406 C182.41322326660156,71.90647888183594 135.13941955566406,68.99547576904297 135.13941955566406,68.99547576904297"></path></g></g><g transform="matrix(1,0,0,1,180.21099853515625,160.17701721191406)" opacity="1" style="display: none;"><g opacity="1" transform="matrix(1,0,0,1,0,0)"></g><g opacity="1" transform="matrix(1,0,0,1,106.43599700927734,131.40199279785156)"><path stroke-linecap="butt" stroke-linejoin="miter" fill-opacity="0" stroke-miterlimit="10" stroke="rgb(0,0,0)" stroke-opacity="1" stroke-width="30" d=" M178.68276977539062,-72.23899841308594 C178.68276977539062,-72.23899841308594 205.71339416503906,-66.36499786376953 205.71339416503906,-66.36499786376953 C214.7752685546875,-64.39599609375 222.7171630859375,-58.4640007019043 226.35911560058594,-49.93499755859375 C228.59707641601562,-44.692996978759766 229.6050567626953,-37.948997497558594 227.59408569335938,-29.509998321533203 C221.59417724609375,-4.33099889755249 215.68426513671875,30.668001174926758 211.53131103515625,48.807003021240234 C208.75636291503906,60.92300033569336 198.75149536132812,70.28600311279297 186.38766479492188,71.5530014038086 C182.9407196044922,71.90599822998047 135.3933868408203,68.99500274658203 135.3933868408203,68.99500274658203"></path></g></g><g transform="matrix(1,0,0,1,180.21099853515625,160.17701721191406)" opacity="1" style="display: none;"><g opacity="1" transform="matrix(1,0,0,1,0,0)"></g><g opacity="1" transform="matrix(1,0,0,1,106.43599700927734,131.40199279785156)"><path stroke-linecap="butt" stroke-linejoin="miter" fill-opacity="0" stroke-miterlimit="10" stroke="rgb(1,150,138)" stroke-opacity="1" stroke-width="23.732" d=" M178.68276977539062,-72.23899841308594 C178.68276977539062,-72.23899841308594 205.71339416503906,-66.36499786376953 205.71339416503906,-66.36499786376953 C214.7752685546875,-64.39599609375 222.7171630859375,-58.4640007019043 226.35911560058594,-49.93499755859375 C228.59707641601562,-44.692996978759766 229.6050567626953,-37.948997497558594 227.59408569335938,-29.509998321533203 C221.59417724609375,-4.33099889755249 215.68426513671875,30.668001174926758 211.53131103515625,48.807003021240234 C208.75636291503906,60.92300033569336 198.75149536132812,70.28600311279297 186.38766479492188,71.5530014038086 C182.9407196044922,71.90599822998047 135.3933868408203,68.99500274658203 135.3933868408203,68.99500274658203"></path></g></g><g transform="matrix(0.6262912154197693,0,0,0.98403000831604,308.8755798339844,185.73521423339844)" opacity="1" style="display: none;"><g opacity="1" transform="matrix(0.91771000623703,0,0,0.91771000623703,111.63400268554688,119.42500305175781)"><path fill="rgb(0,221,179)" fill-opacity="1" d=" M64.03700256347656,-110.28399658203125 C39.220001220703125,-110.94999694824219 10.423999786376953,-110.53600311279297 0.0010000000474974513,-110.36100006103516 C-10.420999526977539,-110.53600311279297 -39.21900177001953,-110.94999694824219 -64.03500366210938,-110.28399658203125 C-103.16000366210938,-109.23300170898438 -100.95600128173828,-86.24700164794922 -98.98899841308594,-51.46200180053711 C-97.19100189208984,-30.238000869750977 -88.37799835205078,-3.691999912261963 -88.37799835205078,-3.691999912261963 C-66.43599700927734,58.14500045776367 -29.229999542236328,94.43900299072266 -10.876999855041504,107.47000122070312 C-7.611999988555908,109.78800201416016 -3.805000066757202,110.947998046875 0.0010000000474974513,110.9489974975586 C3.806999921798706,110.947998046875 7.611999988555908,109.78800201416016 10.878000259399414,107.47000122070312 C29.23200035095215,94.43900299072266 66.43599700927734,58.14500045776367 88.37799835205078,-3.691999912261963 C88.37799835205078,-3.691999912261963 97.19300079345703,-30.238000869750977 98.98899841308594,-51.46200180053711 C100.95600128173828,-86.24700164794922 103.16000366210938,-109.23300170898438 64.03700256347656,-110.28399658203125z"></path><path stroke-linecap="butt" stroke-linejoin="miter" fill-opacity="0" stroke-miterlimit="10" stroke="rgb(0,0,0)" stroke-opacity="1" stroke-width="0" d=" M64.03700256347656,-110.28399658203125 C39.220001220703125,-110.94999694824219 10.423999786376953,-110.53600311279297 0.0010000000474974513,-110.36100006103516 C-10.420999526977539,-110.53600311279297 -39.21900177001953,-110.94999694824219 -64.03500366210938,-110.28399658203125 C-103.16000366210938,-109.23300170898438 -100.95600128173828,-86.24700164794922 -98.98899841308594,-51.46200180053711 C-97.19100189208984,-30.238000869750977 -88.37799835205078,-3.691999912261963 -88.37799835205078,-3.691999912261963 C-66.43599700927734,58.14500045776367 -29.229999542236328,94.43900299072266 -10.876999855041504,107.47000122070312 C-7.611999988555908,109.78800201416016 -3.805000066757202,110.947998046875 0.0010000000474974513,110.9489974975586 C3.806999921798706,110.947998046875 7.611999988555908,109.78800201416016 10.878000259399414,107.47000122070312 C29.23200035095215,94.43900299072266 66.43599700927734,58.14500045776367 88.37799835205078,-3.691999912261963 C88.37799835205078,-3.691999912261963 97.19300079345703,-30.238000869750977 98.98899841308594,-51.46200180053711 C100.95600128173828,-86.24700164794922 103.16000366210938,-109.23300170898438 64.03700256347656,-110.28399658203125z"></path></g></g><g transform="matrix(1.0099899768829346,0,0,1.0541599988937378,266.041748046875,178.36001586914062)" opacity="1" style="display: none;"><g opacity="1" transform="matrix(0.91771000623703,0,0,0.91771000623703,111.63400268554688,119.42500305175781)"><path fill="rgb(0,221,179)" fill-opacity="1" d=" M64.03700256347656,-110.28399658203125 C39.220001220703125,-110.94999694824219 10.423999786376953,-110.53600311279297 0.0010000000474974513,-110.36100006103516 C-10.420999526977539,-110.53600311279297 -39.21900177001953,-110.94999694824219 -64.03500366210938,-110.28399658203125 C-103.16000366210938,-109.23300170898438 -100.95600128173828,-86.24700164794922 -98.98899841308594,-51.46200180053711 C-97.19100189208984,-30.238000869750977 -88.37799835205078,-3.691999912261963 -88.37799835205078,-3.691999912261963 C-66.43599700927734,58.14500045776367 -29.229999542236328,94.43900299072266 -10.876999855041504,107.47000122070312 C-7.611999988555908,109.78800201416016 -3.805000066757202,110.947998046875 0.0010000000474974513,110.9489974975586 C3.806999921798706,110.947998046875 7.611999988555908,109.78800201416016 10.878000259399414,107.47000122070312 C29.23200035095215,94.43900299072266 66.43599700927734,58.14500045776367 88.37799835205078,-3.691999912261963 C88.37799835205078,-3.691999912261963 97.19300079345703,-30.238000869750977 98.98899841308594,-51.46200180053711 C100.95600128173828,-86.24700164794922 103.16000366210938,-109.23300170898438 64.03700256347656,-110.28399658203125z"></path><path stroke-linecap="butt" stroke-linejoin="miter" fill-opacity="0" stroke-miterlimit="10" stroke="rgb(0,0,0)" stroke-opacity="1" stroke-width="0" d=" M64.03700256347656,-110.28399658203125 C39.220001220703125,-110.94999694824219 10.423999786376953,-110.53600311279297 0.0010000000474974513,-110.36100006103516 C-10.420999526977539,-110.53600311279297 -39.21900177001953,-110.94999694824219 -64.03500366210938,-110.28399658203125 C-103.16000366210938,-109.23300170898438 -100.95600128173828,-86.24700164794922 -98.98899841308594,-51.46200180053711 C-97.19100189208984,-30.238000869750977 -88.37799835205078,-3.691999912261963 -88.37799835205078,-3.691999912261963 C-66.43599700927734,58.14500045776367 -29.229999542236328,94.43900299072266 -10.876999855041504,107.47000122070312 C-7.611999988555908,109.78800201416016 -3.805000066757202,110.947998046875 0.0010000000474974513,110.9489974975586 C3.806999921798706,110.947998046875 7.611999988555908,109.78800201416016 10.878000259399414,107.47000122070312 C29.23200035095215,94.43900299072266 66.43599700927734,58.14500045776367 88.37799835205078,-3.691999912261963 C88.37799835205078,-3.691999912261963 97.19300079345703,-30.238000869750977 98.98899841308594,-51.46200180053711 C100.95600128173828,-86.24700164794922 103.16000366210938,-109.23300170898438 64.03700256347656,-110.28399658203125z"></path></g></g><g transform="matrix(0.6154600381851196,0,0,1.0541599988937378,310.084716796875,178.36001586914062)" opacity="1" style="display: none;"><g opacity="1" transform="matrix(0.91771000623703,0,0,0.91771000623703,111.63400268554688,119.42500305175781)"><path fill="rgb(0,221,179)" fill-opacity="1" d=" M64.03700256347656,-110.28399658203125 C39.220001220703125,-110.94999694824219 10.423999786376953,-110.53600311279297 0.0010000000474974513,-110.36100006103516 C-10.420999526977539,-110.53600311279297 -39.21900177001953,-110.94999694824219 -64.03500366210938,-110.28399658203125 C-103.16000366210938,-109.23300170898438 -100.95600128173828,-86.24700164794922 -98.98899841308594,-51.46200180053711 C-97.19100189208984,-30.238000869750977 -88.37799835205078,-3.691999912261963 -88.37799835205078,-3.691999912261963 C-66.43599700927734,58.14500045776367 -29.229999542236328,94.43900299072266 -10.876999855041504,107.47000122070312 C-7.611999988555908,109.78800201416016 -3.805000066757202,110.947998046875 0.0010000000474974513,110.9489974975586 C3.806999921798706,110.947998046875 7.611999988555908,109.78800201416016 10.878000259399414,107.47000122070312 C29.23200035095215,94.43900299072266 66.43599700927734,58.14500045776367 88.37799835205078,-3.691999912261963 C88.37799835205078,-3.691999912261963 97.19300079345703,-30.238000869750977 98.98899841308594,-51.46200180053711 C100.95600128173828,-86.24700164794922 103.16000366210938,-109.23300170898438 64.03700256347656,-110.28399658203125z"></path><path stroke-linecap="butt" stroke-linejoin="miter" fill-opacity="0" stroke-miterlimit="10" stroke="rgb(0,0,0)" stroke-opacity="1" stroke-width="0" d=" M64.03700256347656,-110.28399658203125 C39.220001220703125,-110.94999694824219 10.423999786376953,-110.53600311279297 0.0010000000474974513,-110.36100006103516 C-10.420999526977539,-110.53600311279297 -39.21900177001953,-110.94999694824219 -64.03500366210938,-110.28399658203125 C-103.16000366210938,-109.23300170898438 -100.95600128173828,-86.24700164794922 -98.98899841308594,-51.46200180053711 C-97.19100189208984,-30.238000869750977 -88.37799835205078,-3.691999912261963 -88.37799835205078,-3.691999912261963 C-66.43599700927734,58.14500045776367 -29.229999542236328,94.43900299072266 -10.876999855041504,107.47000122070312 C-7.611999988555908,109.78800201416016 -3.805000066757202,110.947998046875 0.0010000000474974513,110.9489974975586 C3.806999921798706,110.947998046875 7.611999988555908,109.78800201416016 10.878000259399414,107.47000122070312 C29.23200035095215,94.43900299072266 66.43599700927734,58.14500045776367 88.37799835205078,-3.691999912261963 C88.37799835205078,-3.691999912261963 97.19300079345703,-30.238000869750977 98.98899841308594,-51.46200180053711 C100.95600128173828,-86.24700164794922 103.16000366210938,-109.23300170898438 64.03700256347656,-110.28399658203125z"></path></g></g><g transform="matrix(1.0254600048065186,0,0,1.0541599988937378,264.3147888183594,178.36001586914062)" opacity="1" style="display: none;"><g opacity="1" transform="matrix(0.91771000623703,0,0,0.91771000623703,111.63400268554688,119.42500305175781)"><path fill="rgb(0,221,179)" fill-opacity="1" d=" M64.03700256347656,-110.28399658203125 C39.220001220703125,-110.94999694824219 10.423999786376953,-110.53600311279297 0.0010000000474974513,-110.36100006103516 C-10.420999526977539,-110.53600311279297 -39.21900177001953,-110.94999694824219 -64.03500366210938,-110.28399658203125 C-103.16000366210938,-109.23300170898438 -100.95600128173828,-86.24700164794922 -98.98899841308594,-51.46200180053711 C-97.19100189208984,-30.238000869750977 -88.37799835205078,-3.691999912261963 -88.37799835205078,-3.691999912261963 C-66.43599700927734,58.14500045776367 -29.229999542236328,94.43900299072266 -10.876999855041504,107.47000122070312 C-7.611999988555908,109.78800201416016 -3.805000066757202,110.947998046875 0.0010000000474974513,110.9489974975586 C3.806999921798706,110.947998046875 7.611999988555908,109.78800201416016 10.878000259399414,107.47000122070312 C29.23200035095215,94.43900299072266 66.43599700927734,58.14500045776367 88.37799835205078,-3.691999912261963 C88.37799835205078,-3.691999912261963 97.19300079345703,-30.238000869750977 98.98899841308594,-51.46200180053711 C100.95600128173828,-86.24700164794922 103.16000366210938,-109.23300170898438 64.03700256347656,-110.28399658203125z"></path><path stroke-linecap="butt" stroke-linejoin="miter" fill-opacity="0" stroke-miterlimit="10" stroke="rgb(0,0,0)" stroke-opacity="1" stroke-width="0" d=" M64.03700256347656,-110.28399658203125 C39.220001220703125,-110.94999694824219 10.423999786376953,-110.53600311279297 0.0010000000474974513,-110.36100006103516 C-10.420999526977539,-110.53600311279297 -39.21900177001953,-110.94999694824219 -64.03500366210938,-110.28399658203125 C-103.16000366210938,-109.23300170898438 -100.95600128173828,-86.24700164794922 -98.98899841308594,-51.46200180053711 C-97.19100189208984,-30.238000869750977 -88.37799835205078,-3.691999912261963 -88.37799835205078,-3.691999912261963 C-66.43599700927734,58.14500045776367 -29.229999542236328,94.43900299072266 -10.876999855041504,107.47000122070312 C-7.611999988555908,109.78800201416016 -3.805000066757202,110.947998046875 0.0010000000474974513,110.9489974975586 C3.806999921798706,110.947998046875 7.611999988555908,109.78800201416016 10.878000259399414,107.47000122070312 C29.23200035095215,94.43900299072266 66.43599700927734,58.14500045776367 88.37799835205078,-3.691999912261963 C88.37799835205078,-3.691999912261963 97.19300079345703,-30.238000869750977 98.98899841308594,-51.46200180053711 C100.95600128173828,-86.24700164794922 103.16000366210938,-109.23300170898438 64.03700256347656,-110.28399658203125z"></path></g></g><g mask="url(#__lottie_element_859_1)" style="display: block;"><g transform="matrix(1,0,0,1,373,396.5)" opacity="0.29"><g opacity="1" transform="matrix(1,0,0,1,0,0)"><path fill="rgb(255,255,255)" fill-opacity="1" d=" M264.3609924316406,-170.72799682617188 C264.3609924316406,-170.72799682617188 150.593994140625,-195.7830047607422 150.593994140625,-195.7830047607422 C150.593994140625,-195.7830047607422 93.65599822998047,-71.60199737548828 93.65599822998047,-71.60199737548828 C93.65599822998047,-71.60199737548828 51.611000061035156,20.0939998626709 51.611000061035156,20.0939998626709 C51.611000061035156,20.0939998626709 136.5189971923828,-56.0620002746582 136.5189971923828,-56.0620002746582 C136.5189971923828,-56.0620002746582 264.3609924316406,-170.72799682617188 264.3609924316406,-170.72799682617188z"></path><path stroke-linecap="butt" stroke-linejoin="miter" fill-opacity="0" stroke-miterlimit="4" stroke="rgb(0,0,0)" stroke-opacity="1" stroke-width="0" d=" M264.3609924316406,-170.72799682617188 C264.3609924316406,-170.72799682617188 150.593994140625,-195.7830047607422 150.593994140625,-195.7830047607422 C150.593994140625,-195.7830047607422 93.65599822998047,-71.60199737548828 93.65599822998047,-71.60199737548828 C93.65599822998047,-71.60199737548828 51.611000061035156,20.0939998626709 51.611000061035156,20.0939998626709 C51.611000061035156,20.0939998626709 136.5189971923828,-56.0620002746582 136.5189971923828,-56.0620002746582 C136.5189971923828,-56.0620002746582 264.3609924316406,-170.72799682617188 264.3609924316406,-170.72799682617188z"></path></g></g></g><g mask="url(#__lottie_element_862_1)" style="display: none;"><g transform="matrix(1,0,0,1,373,396.5)" opacity="0.002066178539603669"><g opacity="1" transform="matrix(1,0,0,1,0,0)"><path fill="rgb(255,255,255)" fill-opacity="1" d=" M74.93010711669922,-223.7128448486328 C74.93010711669922,-223.7128448486328 -66.33609008789062,-222.22915649414062 -66.33609008789062,-222.22915649414062 C-66.33609008789062,-222.22915649414062 -37.521366119384766,-96.65150451660156 -37.488739013671875,-96.5428466796875 C-37.456111907958984,-96.43419647216797 3.4909377098083496,55.16753387451172 3.4909377098083496,55.16753387451172 C3.4909377098083496,55.16753387451172 39.273597717285156,-96.20924377441406 39.258522033691406,-96.36811065673828 C39.24344253540039,-96.5269775390625 74.93010711669922,-223.7128448486328 74.93010711669922,-223.7128448486328z"></path><path stroke-linecap="butt" stroke-linejoin="miter" fill-opacity="0" stroke-miterlimit="4" stroke="rgb(0,0,0)" stroke-opacity="1" stroke-width="0" d=" M74.93010711669922,-223.7128448486328 C74.93010711669922,-223.7128448486328 -66.33609008789062,-222.22915649414062 -66.33609008789062,-222.22915649414062 C-66.33609008789062,-222.22915649414062 -37.521366119384766,-96.65150451660156 -37.488739013671875,-96.5428466796875 C-37.456111907958984,-96.43419647216797 3.4909377098083496,55.16753387451172 3.4909377098083496,55.16753387451172 C3.4909377098083496,55.16753387451172 39.273597717285156,-96.20924377441406 39.258522033691406,-96.36811065673828 C39.24344253540039,-96.5269775390625 74.93010711669922,-223.7128448486328 74.93010711669922,-223.7128448486328z"></path></g></g></g><g transform="matrix(1,0,0,1,373,396.5)" opacity="1" style="display: block;"></g><g transform="matrix(1,0,0,1,311.5249938964844,219.3699951171875)" opacity="1" style="display: block;"><g opacity="1" transform="matrix(1,0,0,1,70.78399658203125,68.29299926757812)"><path stroke-linecap="round" stroke-linejoin="miter" fill-opacity="0" stroke-miterlimit="10" stroke="rgb(255,255,255)" stroke-opacity="1" stroke-width="13.561" d=" M-36.88100051879883,34.38999938964844 C-26.958999633789062,31.658000946044922 -10.67300033569336,24.479000091552734 -4.188000202178955,6.140999794006348 C4.373000144958496,-18.06599998474121 18.452999114990234,-34.39099884033203 36.88100051879883,-33.47600173950195"></path></g></g></g><g clip-path="url(#__lottie_element_937)" transform="matrix(1,0,0,1,0,0)" opacity="1" style="display: block;"><g transform="matrix(0.9065186381340027,0.42216581106185913,-0.42216581106185913,0.9065186381340027,448.2821044921875,153.72198486328125)" opacity="1" style="display: block;"><g opacity="1" transform="matrix(1,0,0,1,31.275999069213867,29.767000198364258)"><path fill="rgb(255,191,0)" fill-opacity="1" d=" M0.44699999690055847,22.184999465942383 C-2.997999906539917,10.8100004196167 -11.057000160217285,3.671999931335449 -23.29400062561035,1.1690000295639038 C-11.807999610900879,-2.994999885559082 -2.9760000705718994,-11.569999694824219 0.800000011920929,-22.184999465942383 C3.8889999389648438,-11.395999908447266 11.729000091552734,-3.5810000896453857 23.29400062561035,0.24699999392032623 C11.559000015258789,3.0969998836517334 3.7060000896453857,10.640000343322754 0.44699999690055847,22.184999465942383z"></path></g><g opacity="1" transform="matrix(1,0,0,1,31.570999145507812,30.375999450683594)"><path fill="rgb(0,0,0)" fill-opacity="1" d=" M0.3540000021457672,-18.118000030517578 C3.677000045776367,-10.326000213623047 9.652000427246094,-4.328999996185303 17.84600067138672,-0.5580000281333923 C9.552000045776367,2.6010000705718994 3.5360000133514404,8.39799976348877 0.0989999994635582,16.540000915527344 C-3.505000114440918,8.562000274658203 -9.72599983215332,3.049999952316284 -18.378000259399414,0.1770000010728836 C-10.102999687194824,-3.9100000858306885 -3.5209999084472656,-10.342000007629395 0.3540000021457672,-18.118000030517578z M0.8849999904632568,-30.125999450683594 C0.8849999904632568,-30.125999450683594 0.5339999794960022,-30.125999450683594 0.5339999794960022,-30.125999450683594 C-1.5609999895095825,-14.088000297546387 -15.059000015258789,-2.174999952316284 -30.95400047302246,0.8180000185966492 C-30.95400047302246,0.8180000185966492 -31.320999145507812,1.319000005722046 -30.934999465942383,1.340999960899353 C-12.633000373840332,2.3559999465942383 -1.7519999742507935,11.776000022888184 0.09200000017881393,30.125999450683594 C0.09200000017881393,30.125999450683594 0.3490000069141388,30.084999084472656 0.3490000069141388,30.084999084472656 C1.968000054359436,11.586000442504883 12.782999992370605,1.2100000381469727 31.32200050354004,0.14300000667572021 C31.32200050354004,0.14300000667572021 31.32200050354004,-0.11599999666213989 31.32200050354004,-0.11599999666213989 C14.321999549865723,-2.763000011444092 2.384000062942505,-12.986000061035156 0.8849999904632568,-30.125999450683594z"></path></g></g><g transform="matrix(0.9876883625984192,-0.15643446147441864,0.15643446147441864,0.9876883625984192,194.8179473876953,413.14752197265625)" opacity="1" style="display: block;"><g opacity="1" transform="matrix(1,0,0,1,38.86199951171875,35.83300018310547)"><path fill="rgb(255,123,249)" fill-opacity="1" d=" M1.2259999513626099,-14.729999542236328 C1.8609999418258667,-15.45300006866455 2.4179999828338623,-16.14699935913086 3.0309998989105225,-16.774999618530273 C9.503000259399414,-23.405000686645508 19.280000686645508,-23.010000228881836 24.788000106811523,-15.906999588012695 C30.386999130249023,-8.687000274658203 29.454999923706055,2.2660000324249268 22.486000061035156,8.41100025177002 C19.69499969482422,10.873000144958496 16.49799919128418,12.755000114440918 13.470000267028809,14.87399959564209 C7.556000232696533,19.011999130249023 1.6299999952316284,23.131999969482422 -4.434999942779541,27.358999252319336 C-5.724999904632568,25.652000427246094 -7.135000228881836,23.58799934387207 -8.72700023651123,21.718000411987305 C-12.696999549865723,17.054000854492188 -16.774999618530273,12.506999969482422 -20.756000518798828,7.855000019073486 C-22.441999435424805,5.883999824523926 -24.184999465942383,3.9189999103546143 -25.569000244140625,1.6890000104904175 C-30.386999130249023,-6.070000171661377 -28.183000564575195,-16.9060001373291 -20.854000091552734,-22.1560001373291 C-13.590999603271484,-27.357999801635742 -3.9159998893737793,-24.8700008392334 0.26600000262260437,-16.72100067138672 C0.5889999866485596,-16.090999603271484 0.8830000162124634,-15.444000244140625 1.2259999513626099,-14.729999542236328z"></path><path stroke-linecap="butt" stroke-linejoin="miter" fill-opacity="0" stroke-miterlimit="10" stroke="rgb(0,0,0)" stroke-opacity="1" stroke-width="3.39" d=" M1.2259999513626099,-14.729999542236328 C1.8609999418258667,-15.45300006866455 2.4179999828338623,-16.14699935913086 3.0309998989105225,-16.774999618530273 C9.503000259399414,-23.405000686645508 19.280000686645508,-23.010000228881836 24.788000106811523,-15.906999588012695 C30.386999130249023,-8.687000274658203 29.454999923706055,2.2660000324249268 22.486000061035156,8.41100025177002 C19.69499969482422,10.873000144958496 16.49799919128418,12.755000114440918 13.470000267028809,14.87399959564209 C7.556000232696533,19.011999130249023 1.6299999952316284,23.131999969482422 -4.434999942779541,27.358999252319336 C-5.724999904632568,25.652000427246094 -7.135000228881836,23.58799934387207 -8.72700023651123,21.718000411987305 C-12.696999549865723,17.054000854492188 -16.774999618530273,12.506999969482422 -20.756000518798828,7.855000019073486 C-22.441999435424805,5.883999824523926 -24.184999465942383,3.9189999103546143 -25.569000244140625,1.6890000104904175 C-30.386999130249023,-6.070000171661377 -28.183000564575195,-16.9060001373291 -20.854000091552734,-22.1560001373291 C-13.590999603271484,-27.357999801635742 -3.9159998893737793,-24.8700008392334 0.26600000262260437,-16.72100067138672 C0.5889999866485596,-16.090999603271484 0.8830000162124634,-15.444000244140625 1.2259999513626099,-14.729999542236328z"></path></g></g><g transform="matrix(1,0,0,1,166.6790008544922,325.6189880371094)" opacity="1" style="display: block;"><g opacity="1" transform="matrix(1,0,0,1,18.548999786376953,18.548999786376953)"><path fill="rgb(255,191,0)" fill-opacity="1" d=" M10.074999809265137,0 C10.074999809265137,5.564000129699707 5.565000057220459,10.074000358581543 0.0010000000474974513,10.074000358581543 C-5.563000202178955,10.074000358581543 -10.074999809265137,5.564000129699707 -10.074999809265137,0 C-10.074999809265137,-5.564000129699707 -5.563000202178955,-10.074000358581543 0.0010000000474974513,-10.074000358581543 C5.565000057220459,-10.074000358581543 10.074999809265137,-5.564000129699707 10.074999809265137,0z"></path><path stroke-linecap="butt" stroke-linejoin="miter" fill-opacity="0" stroke-miterlimit="10" stroke="rgb(0,0,0)" stroke-opacity="1" stroke-width="3.39" d=" M10.074999809265137,0 C10.074999809265137,5.564000129699707 5.565000057220459,10.074000358581543 0.0010000000474974513,10.074000358581543 C-5.563000202178955,10.074000358581543 -10.074999809265137,5.564000129699707 -10.074999809265137,0 C-10.074999809265137,-5.564000129699707 -5.563000202178955,-10.074000358581543 0.0010000000474974513,-10.074000358581543 C5.565000057220459,-10.074000358581543 10.074999809265137,-5.564000129699707 10.074999809265137,0z"></path></g></g><g transform="matrix(1,0,0,1,274.61199951171875,412.0249938964844)" opacity="1" style="display: block;"><g opacity="1" transform="matrix(1,0,0,1,10.029999732971191,4.59499979019165)"><path stroke-linecap="round" stroke-linejoin="miter" fill-opacity="0" stroke-miterlimit="10" stroke="rgb(0,0,0)" stroke-opacity="1" stroke-width="3.39" d=" M-8.335000038146973,2.9000000953674316 C-8.335000038146973,2.9000000953674316 8.335000038146973,-2.9000000953674316 8.335000038146973,-2.9000000953674316"></path></g></g><g transform="matrix(1,0,0,1,275.8609924316406,431.3450012207031)" opacity="1" style="display: block;"><g opacity="1" transform="matrix(1,0,0,1,10.8149995803833,4.803999900817871)"><path stroke-linecap="round" stroke-linejoin="miter" fill-opacity="0" stroke-miterlimit="10" stroke="rgb(0,0,0)" stroke-opacity="1" stroke-width="3.39" d=" M-9.119999885559082,3.1089999675750732 C-9.119999885559082,3.1089999675750732 9.119999885559082,-3.1089999675750732 9.119999885559082,-3.1089999675750732"></path></g></g><g transform="matrix(1,0,0,1,526.85400390625,405.60498046875)" opacity="1" style="display: block;"><g opacity="1" transform="matrix(1,0,0,1,19.08799934387207,19.08799934387207)"><path fill="rgb(255,191,0)" fill-opacity="1" d=" M10.61299991607666,0 C10.61299991607666,5.861999988555908 5.861000061035156,10.61299991607666 0,10.61299991607666 C-5.861999988555908,10.61299991607666 -10.61299991607666,5.861999988555908 -10.61299991607666,0 C-10.61299991607666,-5.861999988555908 -5.861999988555908,-10.61299991607666 0,-10.61299991607666 C5.861000061035156,-10.61299991607666 10.61299991607666,-5.861999988555908 10.61299991607666,0z"></path><path stroke-linecap="butt" stroke-linejoin="miter" fill-opacity="0" stroke-miterlimit="10" stroke="rgb(0,0,0)" stroke-opacity="1" stroke-width="3.39" d=" M10.61299991607666,0 C10.61299991607666,5.861999988555908 5.861000061035156,10.61299991607666 0,10.61299991607666 C-5.861999988555908,10.61299991607666 -10.61299991607666,5.861999988555908 -10.61299991607666,0 C-10.61299991607666,-5.861999988555908 -5.861999988555908,-10.61299991607666 0,-10.61299991607666 C5.861000061035156,-10.61299991607666 10.61299991607666,-5.861999988555908 10.61299991607666,0z"></path></g></g><g transform="matrix(1,0,0,1,507.0210266113281,406.6099853515625)" opacity="1" style="display: block;"><g opacity="1" transform="matrix(1,0,0,1,8.770000457763672,5.14300012588501)"><path stroke-linecap="round" stroke-linejoin="miter" fill-opacity="0" stroke-miterlimit="10" stroke="rgb(0,0,0)" stroke-opacity="1" stroke-width="3.39" d=" M-7.074999809265137,-3.4489998817443848 C-7.074999809265137,-3.4489998817443848 7.074999809265137,3.4489998817443848 7.074999809265137,3.4489998817443848"></path></g></g><g transform="matrix(1,0,0,1,543.375,278.1159973144531)" opacity="1" style="display: block;"><g opacity="1" transform="matrix(1,0,0,1,11.479000091552734,6.255000114440918)"><path stroke-linecap="round" stroke-linejoin="miter" fill-opacity="0" stroke-miterlimit="10" stroke="rgb(0,0,0)" stroke-opacity="1" stroke-width="3.39" d=" M-9.784000396728516,4.559999942779541 C-3.260999917984009,1.5199999809265137 9.784000396728516,-4.559999942779541 9.784000396728516,-4.559999942779541"></path></g></g><g transform="matrix(1,0,0,1,550.2570190429688,286.406982421875)" opacity="1" style="display: block;"><g opacity="1" transform="matrix(1,0,0,1,12.763999938964844,6.670000076293945)"><path stroke-linecap="round" stroke-linejoin="miter" fill-opacity="0" stroke-miterlimit="10" stroke="rgb(0,0,0)" stroke-opacity="1" stroke-width="3.39" d=" M-11.069000244140625,4.974999904632568 C-11.069000244140625,4.974999904632568 11.069000244140625,-4.974999904632568 11.069000244140625,-4.974999904632568"></path></g></g><g transform="matrix(1,0,0,1,548.9730224609375,250.54701232910156)" opacity="1" style="display: block;"><g opacity="1" transform="matrix(1,0,0,1,29.295000076293945,27.66200065612793)"><path fill="rgb(255,123,249)" fill-opacity="1" d=" M-1.062999963760376,-10.112000465393066 C-0.7870000004768372,-10.720000267028809 -0.5569999814033508,-11.293999671936035 -0.2770000100135803,-11.833999633789062 C2.678999900817871,-17.540000915527344 9.182000160217285,-19.187000274658203 14.194000244140625,-15.505999565124512 C19.288000106811523,-11.762999534606934 20.81999969482422,-4.244999885559082 17.441999435424805,1.2339999675750732 C16.09000015258789,3.427999973297119 14.357000350952148,5.314000129699707 12.781999588012695,7.324999809265137 C9.704000473022461,11.253000259399414 6.616000175476074,15.170000076293945 3.4570000171661377,19.18600082397461 C2.2750000953674316,18.295000076293945 0.9440000057220459,17.187999725341797 -0.4690000116825104,16.246000289916992 C-3.990999937057495,13.89900016784668 -7.563000202178955,11.649999618530273 -11.09000015258789,9.312000274658203 C-12.583999633789062,8.321000099182129 -14.11400032043457,7.3460001945495605 -15.461000442504883,6.123000144958496 C-20.145999908447266,1.8669999837875366 -20.81999969482422,-5.822000026702881 -17.030000686645508,-10.770999908447266 C-13.274999618530273,-15.675000190734863 -6.427999973297119,-15.899999618530273 -2.0840001106262207,-11.258000373840332 C-1.7480000257492065,-10.899999618530273 -1.4279999732971191,-10.52299976348877 -1.062999963760376,-10.112000465393066z"></path><path stroke-linecap="butt" stroke-linejoin="miter" fill-opacity="0" stroke-miterlimit="10" stroke="rgb(0,0,0)" stroke-opacity="1" stroke-width="3.39" d=" M-1.062999963760376,-10.112000465393066 C-0.7870000004768372,-10.720000267028809 -0.5569999814033508,-11.293999671936035 -0.2770000100135803,-11.833999633789062 C2.678999900817871,-17.540000915527344 9.182000160217285,-19.187000274658203 14.194000244140625,-15.505999565124512 C19.288000106811523,-11.762999534606934 20.81999969482422,-4.244999885559082 17.441999435424805,1.2339999675750732 C16.09000015258789,3.427999973297119 14.357000350952148,5.314000129699707 12.781999588012695,7.324999809265137 C9.704000473022461,11.253000259399414 6.616000175476074,15.170000076293945 3.4570000171661377,19.18600082397461 C2.2750000953674316,18.295000076293945 0.9440000057220459,17.187999725341797 -0.4690000116825104,16.246000289916992 C-3.990999937057495,13.89900016784668 -7.563000202178955,11.649999618530273 -11.09000015258789,9.312000274658203 C-12.583999633789062,8.321000099182129 -14.11400032043457,7.3460001945495605 -15.461000442504883,6.123000144958496 C-20.145999908447266,1.8669999837875366 -20.81999969482422,-5.822000026702881 -17.030000686645508,-10.770999908447266 C-13.274999618530273,-15.675000190734863 -6.427999973297119,-15.899999618530273 -2.0840001106262207,-11.258000373840332 C-1.7480000257492065,-10.899999618530273 -1.4279999732971191,-10.52299976348877 -1.062999963760376,-10.112000465393066z"></path></g></g></g></g></svg>